<svg height="720" viewBox="0 0 1080 720" width="1080" xmlns="http://www.w3.org/2000/svg">
  <path d="m0 0h1080v720h-1080z" fill="#e1e1e1" stroke-width="1.39332" />
  <g fill="#a3a3a3" transform="matrix(.54281032 0 0 .54281032 -62.46105 21.29696)">
    <path d="m949.89258 431.98047c-35.17921 0-64 28.82079-64 64v256c0 35.17921 28.82079 64 64 64h320.00002c35.1792 0 64-28.82079 64-64v-256c0-35.17921-28.8208-64-64-64zm0 32h320.00002c18.0047 0 32 13.99526 32 32v256c0 18.00474-13.9953 32-32 32h-320.00002c-18.00474 0-32-13.99526-32-32v-256c0-18.00474 13.99526-32 32-32z" stroke-linejoin="round" />
    <path d="m1189.8926 495.98047c-26.3201 0-48 21.67987-48 48s21.6799 48 48 48 48-21.67987 48-48-21.6799-48-48-48zm0 32c9.026 0 16 6.97394 16 16s-6.974 16-16 16c-9.0261 0-16-6.97394-16-16s6.9739-16 16-16z" stroke-miterlimit="10" />
    <path d="m1046.0273 588.01172c-11.8598-.35144-23.8479 3.62184-33.2871 12.00195a16.0016 16.0016 0 0 0 -.01.008l-121.46878 108a16 16 0 0 0 -1.32617 22.58985 16 16 0 0 0 22.58789 1.32617l121.46096-107.99219.01-.004v-.004c6.4489-5.71679 15.8301-5.43812 21.9258.65625a16.0016 16.0016 0 0 0 .01.01l87.4375 87.27343-76.7891 76.78907a16 16 0 0 0 0 22.62695 16 16 0 0 0 22.6289 0l123.3399-123.33985a16.0016 16.0016 0 0 0 .01-.0117c5.9454-5.95729 15.0853-6.38124 21.5567-1l73.5312 61.32617a16 16 0 0 0 22.5352-2.04102 16 16 0 0 0 -2.0391-22.53515l-73.5508-61.33985a16.0016 16.0016 0 0 0 -.017-.0137c-18.9789-15.78175-47.2279-14.47115-64.6641 3l-23.9141 23.91211-87.4492-87.28516-.01-.01c-8.9252-8.9179-20.6524-13.59205-32.5079-13.94336z" stroke-linecap="round" stroke-linejoin="round" />
  </g>
</svg>
