<svg height="360" viewBox="0 0 360 360" width="360" xmlns="http://www.w3.org/2000/svg">
  <path d="m0 0h360v360h-360z" fill="#e1e1e1" />
  <g fill="#a3a3a3" stroke-width=".558171">
    <path d="m181.62414 63.9003c-65.29484-.88191-118.60017 52.42342-117.71826 117.71826.870747 62.6212 51.85967 113.61012 114.48087 114.48087 65.306.89307 118.60017-52.41226 117.70709-117.7071-.85958-62.63236-51.8485-113.621283-114.4697-114.49203zm70.56398 182.66145a2.2326839 2.2326839 0 0 1 -3.42717-.17861 69.363908 69.363908 0 0 0 -18.05684-16.51628c-14.21103-9.12051-32.21762-14.14405-50.69867-14.14405-18.48104 0-36.48763 5.02354-50.69867 14.14405a69.347163 69.347163 0 0 0 -18.05683 16.5107 2.2326839 2.2326839 0 0 1 -3.42717.17861 97.858536 97.858536 0 0 1 -26.055419-64.88179c-.909818-54.31562 43.660139-99.778648 97.998079-99.912609 54.33795-.133961 98.47811 43.989459 98.47811 98.238089a97.858536 97.858536 0 0 1 -26.05542 66.56189z" />
    <path d="m180.00544 117.48471c-11.00713 0-20.95932 4.12489-28.03134 11.62112-7.07203 7.49624-10.60525 17.86148-9.80707 28.98582 1.6187 21.90821 18.59268 39.76969 37.83841 39.76969 19.24574 0 36.18623-17.86148 37.83841-39.76411.8261-11.01829-2.67922-21.28864-9.86846-28.92442-7.09993-7.5353-17.03538-11.6881-27.96995-11.6881z" />
  </g>
</svg>
