<svg height="98.016655" viewBox="0 0 270.06915 98.016655" width="270.06915" xmlns="http://www.w3.org/2000/svg">
  <g fill="#7679ee" stroke-linecap="round" stroke-linejoin="round" transform="translate(-657.18567 -384.77109)">
    <path d="m657.18567 384.77109v86.54688h10.94922v-75.07813h248.17187v-11.46875zm259.12109 11.46875v75.07813h-248.17187v11.4707h259.11914v-86.54883z" stroke-width="2.15277" />
    <g stroke-width="10.8762">
      <path d="m678.1444 409.66736v46.37881h9.51827v-17.0965h8.73013c8.97263 0 13.3377-6.7901 13.3377-14.79272 0-8.30575-4.6682-14.48959-13.39833-14.48959zm9.51827 9.63952h8.6695c3.15255 0 4.60757 2.36441 4.60757 5.27445 0 2.84942-1.45502 5.33508-4.60757 5.33508h-8.6695z" />
      <path d="m716.33867 409.66736v46.37881h27.52416v-9.63952h-18.00589v-36.73929z" />
      <path d="m766.90069 409.0611-20.79468 46.98507h9.88202l3.33442-8.00262h15.70211l3.2738 8.00262h10.36703l-20.85531-46.98507zm.36375 19.94592 5.03195 12.30706h-10.18515z" />
      <path d="m829.76983 415.54807c-4.30444-3.94068-10.18516-6.48697-17.09651-6.48697-12.97394 0-22.31033 8.97263-22.31033 23.46222 0 14.55022 9.39702 24.12911 22.06783 24.12911 7.21448 0 14.24709-3.09192 17.76339-9.76077l-7.15386-5.94134c-1.81878 3.81944-5.88071 6.06259-10.54891 6.06259-6.72947 0-12.54956-4.60756-12.54956-14.18646 0-9.39701 5.57759-14.12583 12.67082-14.12583 4.78944 0 8.24512 2.18253 11.09454 4.66819z" />
      <path d="m837.0449 409.66736v46.37881h30.31295v-9.63952h-20.79468v-9.57889h20.3703v-9.21513h-20.3703v-8.30575h20.6128v-9.63952z" />
      <path d="m905.73408 413.30491c-4.85007-2.84941-10.0639-4.24381-15.45961-4.24381-9.82139 0-16.36899 4.60757-16.36899 13.27707 0 5.94134 3.09192 8.97264 7.94199 11.27642 3.81943 1.81878 11.15517 4.18319 11.76143 4.42569 2.66754.97002 4.18318 1.94003 4.18318 4.48632 0 3.03129-2.24315 4.97132-7.15385 4.97132-4.00131 0-10.60953-1.27314-15.15648-3.81943l-2.00065 8.6695c5.45633 3.39505 12.91332 4.30444 17.33901 4.30444 10.67015 0 16.55087-5.33508 16.55087-13.64083 0-5.21382-2.30379-8.427-7.09323-10.79141-2.72817-1.33377-5.88072-2.42503-12.67082-4.91069-2.84941-1.03064-4.24381-2.18254-4.24381-4.42569 0-2.97067 2.42504-4.6682 6.66885-4.6682 4.18319 0 9.45764 1.6369 13.5802 3.81943z" />
    </g>
  </g>
</svg>
