<svg height="248.717" viewBox="0 0 198.49945 248.717" width="198.49945" xmlns="http://www.w3.org/2000/svg">
  <path d="m1040.5201 711.97834c-1.6693-.72272-6.999-4.49437-11.8437-8.38144-37.01366-29.69729-65.46961-65.96065-77.06549-98.2098-19.03528-52.93874 2.99418-108.93107 51.94439-132.02717 5.5-2.59505 12.7018-5.44277 16.004-6.32827 9.6643-2.5915 23.4013-3.6364 33.742-2.56656 12.3506 1.27778 19.3051 3.25702 31.254 8.89483 48.9502 23.0961 70.9797 79.08843 51.9444 132.02717-11.3325 31.51648-38.917 67.0561-74.9444 96.5574-12.8129 10.49192-16.2215 12.11786-21.0352 10.03384zm12.736-107.70583c23.274-4.89523 38.8954-27.17778 35.6737-50.88541-3.2916-24.22241-27.633-42.35957-51.3886-38.29042-22.6426 3.87853-38.4859 22.31714-38.4859 44.79042 0 28.72185 26.2948 50.25488 54.2008 44.38541z" fill="#f05" transform="translate(-944.80558 -464.04948)" />
</svg>
